<svg xmlns="http://www.w3.org/2000/svg" width="1200" height="630" viewBox="0 0 1200 630" role="img" aria-label="Analytics Dashboard">
  <defs>
    <linearGradient id="bg" x1="0%" y1="0%" x2="100%" y2="100%">
      <stop offset="0%" stop-color="#0a0f1a"/>
      <stop offset="55%" stop-color="#0f172a"/>
      <stop offset="100%" stop-color="#0b1220"/>
    </linearGradient>
    <linearGradient id="accent" x1="0%" y1="0%" x2="100%" y2="0%">
      <stop offset="0%" stop-color="#6366f1"/>
      <stop offset="100%" stop-color="#818cf8"/>
    </linearGradient>
  </defs>
  <rect width="1200" height="630" fill="url(#bg)"/>
  <circle cx="150" cy="110" r="130" fill="#6366f1" opacity="0.1"/>
  <circle cx="1080" cy="540" r="200" fill="#818cf8" opacity="0.08"/>
  <text x="120" y="96" font-family="system-ui, -apple-system, Segoe UI, sans-serif" font-size="22" font-weight="700" fill="#818cf8" text-anchor="start" letter-spacing="3">DASHBOARD</text>
  <rect x="120" y="128" width="960" height="344" rx="18" fill="#0d1424" stroke="#1e293b" stroke-width="1.5"/>
  <rect x="120" y="128" width="960" height="44" rx="18" fill="#111a2e"/>
  <rect x="120" y="154" width="960" height="18" rx="0" fill="#111a2e"/>
  <circle cx="146" cy="150" r="6" fill="#ef4444"/>
  <circle cx="168" cy="150" r="6" fill="#f59e0b"/>
  <circle cx="190" cy="150" r="6" fill="#22c55e"/>
  <rect x="216" y="140" width="830" height="20" rx="10" fill="#0b1220"/>
  <text x="236" y="154" font-family="system-ui, -apple-system, Segoe UI, sans-serif" font-size="12" font-weight="400" fill="#475569" text-anchor="start">alamia.es/proyectos/dashboard-analytics</text>
  <rect x="148" y="184" width="289.3333333333333" height="86" rx="12" fill="#0b1220" stroke="#1e293b" stroke-width="1"/><text x="166" y="216" font-family="system-ui, -apple-system, Segoe UI, sans-serif" font-size="14" font-weight="400" fill="#64748b" text-anchor="start">Ventas</text><text x="166" y="250" font-family="system-ui, -apple-system, Segoe UI, sans-serif" font-size="26" font-weight="800" fill="#6366f1" text-anchor="start">€48.2k</text><rect x="455.3333333333333" y="184" width="289.3333333333333" height="86" rx="12" fill="#0b1220" stroke="#1e293b" stroke-width="1"/><text x="473.3333333333333" y="216" font-family="system-ui, -apple-system, Segoe UI, sans-serif" font-size="14" font-weight="400" fill="#64748b" text-anchor="start">Visitas</text><text x="473.3333333333333" y="250" font-family="system-ui, -apple-system, Segoe UI, sans-serif" font-size="26" font-weight="800" fill="#818cf8" text-anchor="start">12.480</text><rect x="762.6666666666666" y="184" width="289.3333333333333" height="86" rx="12" fill="#0b1220" stroke="#1e293b" stroke-width="1"/><text x="780.6666666666666" y="216" font-family="system-ui, -apple-system, Segoe UI, sans-serif" font-size="14" font-weight="400" fill="#64748b" text-anchor="start">Conversión</text><text x="780.6666666666666" y="250" font-family="system-ui, -apple-system, Segoe UI, sans-serif" font-size="26" font-weight="800" fill="#6366f1" text-anchor="start">3,8%</text><rect x="148" y="300" width="904" height="130" rx="12" fill="#0b1220" stroke="#1e293b" stroke-width="1"/><rect x="176" y="369" width="46" height="37" rx="6" fill="#6366f1"/><rect x="290.57142857142856" y="353" width="46" height="53" rx="6" fill="#818cf8"/><rect x="405.1428571428571" y="376" width="46" height="30" rx="6" fill="#6366f1"/><rect x="519.7142857142858" y="343" width="46" height="63" rx="6" fill="#818cf8"/><rect x="634.2857142857142" y="360" width="46" height="46" rx="6" fill="#6366f1"/><rect x="748.8571428571429" y="336" width="46" height="70" rx="6" fill="#818cf8"/><rect x="863.4285714285714" y="365" width="46" height="41" rx="6" fill="#6366f1"/><rect x="978" y="348" width="46" height="58" rx="6" fill="#818cf8"/>
  <text x="120" y="545" font-family="system-ui, -apple-system, Segoe UI, sans-serif" font-size="50" font-weight="800" fill="#ffffff" text-anchor="start">Analytics Dashboard</text>
  <text x="120" y="586" font-family="system-ui, -apple-system, Segoe UI, sans-serif" font-size="21" font-weight="400" fill="#94a3b8" text-anchor="start">KPIs de negocio en tiempo real, sin exportar Excel</text>
  <text x="1080" y="586" font-family="system-ui, -apple-system, Segoe UI, sans-serif" font-size="18" font-weight="700" fill="#818cf8" text-anchor="end">alamia.es</text>
</svg>
