<svg xmlns="http://www.w3.org/2000/svg" width="1200" height="630" viewBox="0 0 1200 630">
  <defs>
    <linearGradient id="bg" x1="0%" y1="0%" x2="100%" y2="100%">
      <stop offset="0%" style="stop-color:#0f172a"/>
      <stop offset="50%" style="stop-color:#1e1b4b"/>
      <stop offset="100%" style="stop-color:#312e81"/>
    </linearGradient>
    <linearGradient id="accent" x1="0%" y1="0%" x2="100%" y2="0%">
      <stop offset="0%" style="stop-color:#818cf8"/>
      <stop offset="100%" style="stop-color:#c084fc"/>
    </linearGradient>
  </defs>
  <rect width="1200" height="630" fill="url(#bg)"/>
  <circle cx="1000" cy="120" r="180" fill="#6366f1" opacity="0.15"/>
  <circle cx="200" cy="500" r="220" fill="#8b5cf6" opacity="0.12"/>
  <rect x="120" y="180" width="520" height="280" rx="16" fill="#1e293b" stroke="#334155" stroke-width="2"/>
  <rect x="150" y="210" width="200" height="12" rx="6" fill="url(#accent)"/>
  <rect x="150" y="240" width="380" height="8" rx="4" fill="#475569"/>
  <rect x="150" y="260" width="320" height="8" rx="4" fill="#334155"/>
  <rect x="150" y="300" width="100" height="36" rx="8" fill="#6366f1"/>
  <rect x="150" y="360" width="460" height="60" rx="8" fill="#0f172a" stroke="#334155"/>
  <rect x="170" y="378" width="80" height="24" rx="4" fill="#22c55e" opacity="0.8"/>
  <rect x="270" y="378" width="80" height="24" rx="4" fill="#6366f1" opacity="0.6"/>
  <rect x="370" y="378" width="80" height="24" rx="4" fill="#6366f1" opacity="0.4"/>
  <text x="120" y="100" font-family="system-ui, -apple-system, sans-serif" font-size="28" font-weight="600" fill="#94a3b8" letter-spacing="2">SAAS LANDING</text>
  <text x="120" y="560" font-family="system-ui, -apple-system, sans-serif" font-size="56" font-weight="800" fill="#ffffff">MetricFlow</text>
  <text x="120" y="600" font-family="system-ui, -apple-system, sans-serif" font-size="22" fill="#818cf8">Analytics para equipos de producto</text>
</svg>
