<svg xmlns="http://www.w3.org/2000/svg" width="1200" height="630" viewBox="0 0 1200 630">
  <defs>
    <linearGradient id="bg" x1="0%" y1="0%" x2="100%" y2="100%">
      <stop offset="0%" style="stop-color:#451a03"/>
      <stop offset="40%" style="stop-color:#78350f"/>
      <stop offset="100%" style="stop-color:#292524"/>
    </linearGradient>
    <linearGradient id="warm" x1="0%" y1="0%" x2="100%" y2="100%">
      <stop offset="0%" style="stop-color:#fef3c7"/>
      <stop offset="100%" style="stop-color:#fde68a"/>
    </linearGradient>
  </defs>
  <rect width="1200" height="630" fill="url(#bg)"/>
  <circle cx="100" cy="500" r="180" fill="#d97706" opacity="0.15"/>
  <circle cx="1100" cy="100" r="150" fill="#fbbf24" opacity="0.1"/>
  <rect x="80" y="130" width="260" height="320" rx="14" fill="#1c1917" stroke="#57534e" stroke-width="2"/>
  <rect x="80" y="130" width="260" height="100" rx="14" fill="url(#warm)"/>
  <text x="210" y="195" font-family="system-ui, sans-serif" font-size="48" text-anchor="middle"></text>
  <text x="100" y="270" font-family="Georgia, serif" font-size="20" font-weight="700" fill="#fafaf9">Cappuccino</text>
  <text x="100" y="300" font-family="system-ui, sans-serif" font-size="13" fill="#a8a29e">Espresso con leche espumada</text>
  <text x="100" y="340" font-family="system-ui, sans-serif" font-size="22" font-weight="700" fill="#fbbf24">2,50 ¬</text>
  <rect x="360" y="130" width="260" height="320" rx="14" fill="#1c1917" stroke="#57534e" stroke-width="2"/>
  <rect x="360" y="130" width="260" height="100" rx="14" fill="url(#warm)"/>
  <text x="490" y="195" font-family="system-ui, sans-serif" font-size="48" text-anchor="middle">>P</text>
  <text x="380" y="270" font-family="Georgia, serif" font-size="20" font-weight="700" fill="#fafaf9">Croissant</text>
  <text x="380" y="340" font-family="system-ui, sans-serif" font-size="22" font-weight="700" fill="#fbbf24">2,20 ¬</text>
  <rect x="640" y="130" width="260" height="320" rx="14" fill="#1c1917" stroke="#57534e" stroke-width="2"/>
  <rect x="640" y="130" width="260" height="100" rx="14" fill="url(#warm)"/>
  <text x="770" y="195" font-family="system-ui, sans-serif" font-size="48" text-anchor="middle">>Q</text>
  <text x="660" y="270" font-family="Georgia, serif" font-size="20" font-weight="700" fill="#fafaf9">Tostada</text>
  <text x="660" y="340" font-family="system-ui, sans-serif" font-size="22" font-weight="700" fill="#fbbf24">4,50 ¬</text>
  <rect x="920" y="130" width="200" height="60" rx="30" fill="#92400e"/>
  <text x="1020" y="168" font-family="system-ui, sans-serif" font-size="16" font-weight="600" fill="#fff" text-anchor="middle">=Ň Carrito</text>
  <text x="80" y="90" font-family="system-ui, sans-serif" font-size="28" font-weight="600" fill="#d6d3d1" letter-spacing="2">MENÚ DIGITAL QR</text>
  <text x="80" y="560" font-family="Georgia, serif" font-size="56" font-weight="700" fill="#ffffff">Café Aurora</text>
  <text x="80" y="600" font-family="system-ui, sans-serif" font-size="22" fill="#fbbf24">Menú con filtros de alérgenos</text>
</svg>
