<svg xmlns="http://www.w3.org/2000/svg" width="1200" height="630" viewBox="0 0 1200 630" role="img" aria-label="CRM de Leads">
  <defs>
    <linearGradient id="bg" x1="0%" y1="0%" x2="100%" y2="100%">
      <stop offset="0%" stop-color="#0a0f1a"/>
      <stop offset="55%" stop-color="#0f172a"/>
      <stop offset="100%" stop-color="#0b1220"/>
    </linearGradient>
    <linearGradient id="accent" x1="0%" y1="0%" x2="100%" y2="0%">
      <stop offset="0%" stop-color="#8b5cf6"/>
      <stop offset="100%" stop-color="#a78bfa"/>
    </linearGradient>
  </defs>
  <rect width="1200" height="630" fill="url(#bg)"/>
  <circle cx="150" cy="110" r="130" fill="#8b5cf6" opacity="0.1"/>
  <circle cx="1080" cy="540" r="200" fill="#a78bfa" opacity="0.08"/>
  <text x="120" y="96" font-family="system-ui, -apple-system, Segoe UI, sans-serif" font-size="22" font-weight="700" fill="#a78bfa" text-anchor="start" letter-spacing="3">CRM</text>
  <rect x="120" y="128" width="960" height="344" rx="18" fill="#0d1424" stroke="#1e293b" stroke-width="1.5"/>
  <rect x="120" y="128" width="960" height="44" rx="18" fill="#111a2e"/>
  <rect x="120" y="154" width="960" height="18" rx="0" fill="#111a2e"/>
  <circle cx="146" cy="150" r="6" fill="#ef4444"/>
  <circle cx="168" cy="150" r="6" fill="#f59e0b"/>
  <circle cx="190" cy="150" r="6" fill="#22c55e"/>
  <rect x="216" y="140" width="830" height="20" rx="10" fill="#0b1220"/>
  <text x="236" y="154" font-family="system-ui, -apple-system, Segoe UI, sans-serif" font-size="12" font-weight="400" fill="#475569" text-anchor="start">alamia.es/proyectos/crm-leads</text>
  <rect x="148" y="184" width="289.3333333333333" height="260" rx="12" fill="#0b1220" stroke="#1e293b" stroke-width="1"/><text x="164" y="214" font-family="system-ui, -apple-system, Segoe UI, sans-serif" font-size="14" font-weight="700" fill="#8b5cf6" text-anchor="start">Nuevos</text><rect x="393.3333333333333" y="200" width="28" height="20" rx="6" fill="#1e293b"/><text x="407.3333333333333" y="215" font-family="system-ui, -apple-system, Segoe UI, sans-serif" font-size="12" font-weight="700" fill="#94a3b8" text-anchor="middle">3</text><rect x="162" y="232" width="261.3333333333333" height="48" rx="8" fill="#111827" stroke="#1e293b" stroke-width="1"/><rect x="162" y="232" width="4" height="48" rx="2" fill="#8b5cf6"/><text x="176" y="254" font-family="system-ui, -apple-system, Segoe UI, sans-serif" font-size="13" font-weight="600" fill="#cbd5e1" text-anchor="start">Marta — web</text><rect x="176" y="264" width="70" height="8" rx="4" fill="#1e293b"/><rect x="162" y="292" width="261.3333333333333" height="48" rx="8" fill="#111827" stroke="#1e293b" stroke-width="1"/><rect x="162" y="292" width="4" height="48" rx="2" fill="#a78bfa"/><text x="176" y="314" font-family="system-ui, -apple-system, Segoe UI, sans-serif" font-size="13" font-weight="600" fill="#cbd5e1" text-anchor="start">Hostal Sol</text><rect x="176" y="324" width="70" height="8" rx="4" fill="#1e293b"/><rect x="162" y="352" width="261.3333333333333" height="48" rx="8" fill="#111827" stroke="#1e293b" stroke-width="1"/><rect x="162" y="352" width="4" height="48" rx="2" fill="#8b5cf6"/><text x="176" y="374" font-family="system-ui, -apple-system, Segoe UI, sans-serif" font-size="13" font-weight="600" fill="#cbd5e1" text-anchor="start">Clínica Vida</text><rect x="176" y="384" width="70" height="8" rx="4" fill="#1e293b"/><rect x="455.3333333333333" y="184" width="289.3333333333333" height="260" rx="12" fill="#0b1220" stroke="#1e293b" stroke-width="1"/><text x="471.3333333333333" y="214" font-family="system-ui, -apple-system, Segoe UI, sans-serif" font-size="14" font-weight="700" fill="#a78bfa" text-anchor="start">Contactados</text><rect x="700.6666666666666" y="200" width="28" height="20" rx="6" fill="#1e293b"/><text x="714.6666666666666" y="215" font-family="system-ui, -apple-system, Segoe UI, sans-serif" font-size="12" font-weight="700" fill="#94a3b8" text-anchor="middle">2</text><rect x="469.3333333333333" y="232" width="261.3333333333333" height="48" rx="8" fill="#111827" stroke="#1e293b" stroke-width="1"/><rect x="469.3333333333333" y="232" width="4" height="48" rx="2" fill="#8b5cf6"/><text x="483.3333333333333" y="254" font-family="system-ui, -apple-system, Segoe UI, sans-serif" font-size="13" font-weight="600" fill="#cbd5e1" text-anchor="start">Taller RM</text><rect x="483.3333333333333" y="264" width="70" height="8" rx="4" fill="#1e293b"/><rect x="469.3333333333333" y="292" width="261.3333333333333" height="48" rx="8" fill="#111827" stroke="#1e293b" stroke-width="1"/><rect x="469.3333333333333" y="292" width="4" height="48" rx="2" fill="#a78bfa"/><text x="483.3333333333333" y="314" font-family="system-ui, -apple-system, Segoe UI, sans-serif" font-size="13" font-weight="600" fill="#cbd5e1" text-anchor="start">Gimnasio Fit</text><rect x="483.3333333333333" y="324" width="70" height="8" rx="4" fill="#1e293b"/><rect x="762.6666666666666" y="184" width="289.3333333333333" height="260" rx="12" fill="#0b1220" stroke="#1e293b" stroke-width="1"/><text x="778.6666666666666" y="214" font-family="system-ui, -apple-system, Segoe UI, sans-serif" font-size="14" font-weight="700" fill="#94a3b8" text-anchor="start">Cerrados</text><rect x="1008" y="200" width="28" height="20" rx="6" fill="#1e293b"/><text x="1022" y="215" font-family="system-ui, -apple-system, Segoe UI, sans-serif" font-size="12" font-weight="700" fill="#94a3b8" text-anchor="middle">2</text><rect x="776.6666666666666" y="232" width="261.3333333333333" height="48" rx="8" fill="#111827" stroke="#1e293b" stroke-width="1"/><rect x="776.6666666666666" y="232" width="4" height="48" rx="2" fill="#8b5cf6"/><text x="790.6666666666666" y="254" font-family="system-ui, -apple-system, Segoe UI, sans-serif" font-size="13" font-weight="600" fill="#cbd5e1" text-anchor="start">Boutique Lu</text><rect x="790.6666666666666" y="264" width="70" height="8" rx="4" fill="#1e293b"/><rect x="776.6666666666666" y="292" width="261.3333333333333" height="48" rx="8" fill="#111827" stroke="#1e293b" stroke-width="1"/><rect x="776.6666666666666" y="292" width="4" height="48" rx="2" fill="#a78bfa"/><text x="790.6666666666666" y="314" font-family="system-ui, -apple-system, Segoe UI, sans-serif" font-size="13" font-weight="600" fill="#cbd5e1" text-anchor="start">Café Central</text><rect x="790.6666666666666" y="324" width="70" height="8" rx="4" fill="#1e293b"/>
  <text x="120" y="545" font-family="system-ui, -apple-system, Segoe UI, sans-serif" font-size="50" font-weight="800" fill="#ffffff" text-anchor="start">CRM de Leads</text>
  <text x="120" y="586" font-family="system-ui, -apple-system, Segoe UI, sans-serif" font-size="21" font-weight="400" fill="#94a3b8" text-anchor="start">Pipeline de ventas con seguimiento</text>
  <text x="1080" y="586" font-family="system-ui, -apple-system, Segoe UI, sans-serif" font-size="18" font-weight="700" fill="#a78bfa" text-anchor="end">alamia.es</text>
</svg>
