<svg xmlns="http://www.w3.org/2000/svg" width="1200" height="630" viewBox="0 0 1200 630" role="img" aria-label="MetricFlow SaaS">
  <defs>
    <linearGradient id="bg" x1="0%" y1="0%" x2="100%" y2="100%">
      <stop offset="0%" stop-color="#0a0f1a"/>
      <stop offset="55%" stop-color="#0f172a"/>
      <stop offset="100%" stop-color="#0b1220"/>
    </linearGradient>
    <linearGradient id="accent" x1="0%" y1="0%" x2="100%" y2="0%">
      <stop offset="0%" stop-color="#7c3aed"/>
      <stop offset="100%" stop-color="#a78bfa"/>
    </linearGradient>
  </defs>
  <rect width="1200" height="630" fill="url(#bg)"/>
  <circle cx="150" cy="110" r="130" fill="#7c3aed" opacity="0.1"/>
  <circle cx="1080" cy="540" r="200" fill="#a78bfa" opacity="0.08"/>
  <text x="120" y="96" font-family="system-ui, -apple-system, Segoe UI, sans-serif" font-size="22" font-weight="700" fill="#a78bfa" text-anchor="start" letter-spacing="3">LANDING</text>
  <rect x="120" y="128" width="960" height="344" rx="18" fill="#0d1424" stroke="#1e293b" stroke-width="1.5"/>
  <rect x="120" y="128" width="960" height="44" rx="18" fill="#111a2e"/>
  <rect x="120" y="154" width="960" height="18" rx="0" fill="#111a2e"/>
  <circle cx="146" cy="150" r="6" fill="#ef4444"/>
  <circle cx="168" cy="150" r="6" fill="#f59e0b"/>
  <circle cx="190" cy="150" r="6" fill="#22c55e"/>
  <rect x="216" y="140" width="830" height="20" rx="10" fill="#0b1220"/>
  <text x="236" y="154" font-family="system-ui, -apple-system, Segoe UI, sans-serif" font-size="12" font-weight="400" fill="#475569" text-anchor="start">alamia.es/proyectos/landing-saas</text>
  <rect x="148" y="190" width="542.4" height="18" rx="9" fill="#1e293b"/><text x="148" y="254" font-family="system-ui, -apple-system, Segoe UI, sans-serif" font-size="38" font-weight="800" fill="#f8fafc" text-anchor="start">Tus métricas,</text><text x="148" y="288" font-family="system-ui, -apple-system, Segoe UI, sans-serif" font-size="16" font-weight="400" fill="#94a3b8" text-anchor="start">claras y en tiempo real para tu equipo.</text><rect x="148" y="314" width="168" height="44" rx="10" fill="#7c3aed"/><text x="232" y="342" font-family="system-ui, -apple-system, Segoe UI, sans-serif" font-size="15" font-weight="700" fill="#06121f" text-anchor="middle">Empezar gratis</text><rect x="332" y="314" width="150" height="44" rx="10" fill="none" stroke="#a78bfa" stroke-width="2"/><text x="407" y="342" font-family="system-ui, -apple-system, Segoe UI, sans-serif" font-size="15" font-weight="600" fill="#a78bfa" text-anchor="middle">Ver demo</text><rect x="802" y="184" width="250" height="260" rx="14" fill="#0b1220" stroke="#1e293b" stroke-width="1"/><text x="826" y="228" font-family="system-ui, -apple-system, Segoe UI, sans-serif" font-size="14" font-weight="400" fill="#64748b" text-anchor="start">Conversión</text><text x="826" y="280" font-family="system-ui, -apple-system, Segoe UI, sans-serif" font-size="44" font-weight="800" fill="#a78bfa" text-anchor="start">+38%</text><path d="M826 352 L862 340 L898 345.6 L934 328 L970 332 L1006 312 " fill="none" stroke="#7c3aed" stroke-width="3" stroke-linecap="round" stroke-linejoin="round"/>
  <text x="120" y="545" font-family="system-ui, -apple-system, Segoe UI, sans-serif" font-size="50" font-weight="800" fill="#ffffff" text-anchor="start">MetricFlow SaaS</text>
  <text x="120" y="586" font-family="system-ui, -apple-system, Segoe UI, sans-serif" font-size="21" font-weight="400" fill="#94a3b8" text-anchor="start">Landing de producto con CRO optimizado</text>
  <text x="1080" y="586" font-family="system-ui, -apple-system, Segoe UI, sans-serif" font-size="18" font-weight="700" fill="#a78bfa" text-anchor="end">alamia.es</text>
</svg>
