<svg xmlns="http://www.w3.org/2000/svg" width="1200" height="630" viewBox="0 0 1200 630" role="img" aria-label="Plataforma Educativa">
  <defs>
    <linearGradient id="bg" x1="0%" y1="0%" x2="100%" y2="100%">
      <stop offset="0%" stop-color="#0a0f1a"/>
      <stop offset="55%" stop-color="#0f172a"/>
      <stop offset="100%" stop-color="#0b1220"/>
    </linearGradient>
    <linearGradient id="accent" x1="0%" y1="0%" x2="100%" y2="0%">
      <stop offset="0%" stop-color="#ea580c"/>
      <stop offset="100%" stop-color="#fb923c"/>
    </linearGradient>
  </defs>
  <rect width="1200" height="630" fill="url(#bg)"/>
  <circle cx="150" cy="110" r="130" fill="#ea580c" opacity="0.1"/>
  <circle cx="1080" cy="540" r="200" fill="#fb923c" opacity="0.08"/>
  <text x="120" y="96" font-family="system-ui, -apple-system, Segoe UI, sans-serif" font-size="22" font-weight="700" fill="#fb923c" text-anchor="start" letter-spacing="3">PLATAFORMA</text>
  <rect x="120" y="128" width="960" height="344" rx="18" fill="#0d1424" stroke="#1e293b" stroke-width="1.5"/>
  <rect x="120" y="128" width="960" height="44" rx="18" fill="#111a2e"/>
  <rect x="120" y="154" width="960" height="18" rx="0" fill="#111a2e"/>
  <circle cx="146" cy="150" r="6" fill="#ef4444"/>
  <circle cx="168" cy="150" r="6" fill="#f59e0b"/>
  <circle cx="190" cy="150" r="6" fill="#22c55e"/>
  <rect x="216" y="140" width="830" height="20" rx="10" fill="#0b1220"/>
  <text x="236" y="154" font-family="system-ui, -apple-system, Segoe UI, sans-serif" font-size="12" font-weight="400" fill="#475569" text-anchor="start">alamia.es/proyectos/plataforma-educativa</text>
  <rect x="148" y="184" width="904" height="52" rx="10" fill="#0b1220" stroke="#1e293b" stroke-width="1"/><rect x="162" y="196" width="28" height="28" rx="8" fill="#ea580c33"/><text x="176" y="215" font-family="system-ui, -apple-system, Segoe UI, sans-serif" font-size="14" font-weight="700" fill="#ea580c" text-anchor="middle">1</text><text x="206" y="216" font-family="system-ui, -apple-system, Segoe UI, sans-serif" font-size="15" font-weight="600" fill="#cbd5e1" text-anchor="start">Introducción al marketing</text><rect x="762" y="206" width="220" height="8" rx="4" fill="#1e293b"/><rect x="762" y="206" width="220" height="8" rx="4" fill="#ea580c"/><text x="1032" y="216" font-family="system-ui, -apple-system, Segoe UI, sans-serif" font-size="13" font-weight="700" fill="#fb923c" text-anchor="end">100%</text><rect x="148" y="248" width="904" height="52" rx="10" fill="#0b1220" stroke="#1e293b" stroke-width="1"/><rect x="162" y="260" width="28" height="28" rx="8" fill="#fb923c33"/><text x="176" y="279" font-family="system-ui, -apple-system, Segoe UI, sans-serif" font-size="14" font-weight="700" fill="#fb923c" text-anchor="middle">2</text><text x="206" y="280" font-family="system-ui, -apple-system, Segoe UI, sans-serif" font-size="15" font-weight="600" fill="#cbd5e1" text-anchor="start">SEO y contenidos</text><rect x="762" y="270" width="220" height="8" rx="4" fill="#1e293b"/><rect x="762" y="270" width="145" height="8" rx="4" fill="#ea580c"/><text x="1032" y="280" font-family="system-ui, -apple-system, Segoe UI, sans-serif" font-size="13" font-weight="700" fill="#fb923c" text-anchor="end">66%</text><rect x="148" y="312" width="904" height="52" rx="10" fill="#0b1220" stroke="#1e293b" stroke-width="1"/><rect x="162" y="324" width="28" height="28" rx="8" fill="#ea580c33"/><text x="176" y="343" font-family="system-ui, -apple-system, Segoe UI, sans-serif" font-size="14" font-weight="700" fill="#ea580c" text-anchor="middle">3</text><text x="206" y="344" font-family="system-ui, -apple-system, Segoe UI, sans-serif" font-size="15" font-weight="600" fill="#cbd5e1" text-anchor="start">Publicidad de pago</text><rect x="762" y="334" width="220" height="8" rx="4" fill="#1e293b"/><rect x="762" y="334" width="66" height="8" rx="4" fill="#ea580c"/><text x="1032" y="344" font-family="system-ui, -apple-system, Segoe UI, sans-serif" font-size="13" font-weight="700" fill="#fb923c" text-anchor="end">30%</text><rect x="148" y="376" width="904" height="52" rx="10" fill="#0b1220" stroke="#1e293b" stroke-width="1"/><rect x="162" y="388" width="28" height="28" rx="8" fill="#fb923c33"/><text x="176" y="407" font-family="system-ui, -apple-system, Segoe UI, sans-serif" font-size="14" font-weight="700" fill="#fb923c" text-anchor="middle">4</text><text x="206" y="408" font-family="system-ui, -apple-system, Segoe UI, sans-serif" font-size="15" font-weight="600" fill="#cbd5e1" text-anchor="start">Analítica y CRO</text><rect x="762" y="398" width="220" height="8" rx="4" fill="#1e293b"/><rect x="762" y="398" width="11" height="8" rx="4" fill="#ea580c"/><text x="1032" y="408" font-family="system-ui, -apple-system, Segoe UI, sans-serif" font-size="13" font-weight="700" fill="#fb923c" text-anchor="end">5%</text>
  <text x="120" y="545" font-family="system-ui, -apple-system, Segoe UI, sans-serif" font-size="50" font-weight="800" fill="#ffffff" text-anchor="start">Plataforma Educativa</text>
  <text x="120" y="586" font-family="system-ui, -apple-system, Segoe UI, sans-serif" font-size="21" font-weight="400" fill="#94a3b8" text-anchor="start">Cursos online con progreso por lección</text>
  <text x="1080" y="586" font-family="system-ui, -apple-system, Segoe UI, sans-serif" font-size="18" font-weight="700" fill="#fb923c" text-anchor="end">alamia.es</text>
</svg>
