<svg xmlns="http://www.w3.org/2000/svg" width="1200" height="630" viewBox="0 0 1200 630" role="img" aria-label="Portal Inmobiliario">
  <defs>
    <linearGradient id="bg" x1="0%" y1="0%" x2="100%" y2="100%">
      <stop offset="0%" stop-color="#0a0f1a"/>
      <stop offset="55%" stop-color="#0f172a"/>
      <stop offset="100%" stop-color="#0b1220"/>
    </linearGradient>
    <linearGradient id="accent" x1="0%" y1="0%" x2="100%" y2="0%">
      <stop offset="0%" stop-color="#2563eb"/>
      <stop offset="100%" stop-color="#60a5fa"/>
    </linearGradient>
  </defs>
  <rect width="1200" height="630" fill="url(#bg)"/>
  <circle cx="150" cy="110" r="130" fill="#2563eb" opacity="0.1"/>
  <circle cx="1080" cy="540" r="200" fill="#60a5fa" opacity="0.08"/>
  <text x="120" y="96" font-family="system-ui, -apple-system, Segoe UI, sans-serif" font-size="22" font-weight="700" fill="#60a5fa" text-anchor="start" letter-spacing="3">PORTAL WEB</text>
  <rect x="120" y="128" width="960" height="344" rx="18" fill="#0d1424" stroke="#1e293b" stroke-width="1.5"/>
  <rect x="120" y="128" width="960" height="44" rx="18" fill="#111a2e"/>
  <rect x="120" y="154" width="960" height="18" rx="0" fill="#111a2e"/>
  <circle cx="146" cy="150" r="6" fill="#ef4444"/>
  <circle cx="168" cy="150" r="6" fill="#f59e0b"/>
  <circle cx="190" cy="150" r="6" fill="#22c55e"/>
  <rect x="216" y="140" width="830" height="20" rx="10" fill="#0b1220"/>
  <text x="236" y="154" font-family="system-ui, -apple-system, Segoe UI, sans-serif" font-size="12" font-weight="400" fill="#475569" text-anchor="start">alamia.es/proyectos/portal-inmobiliario</text>
  <rect x="148" y="184" width="904" height="40" rx="10" fill="#0b1220" stroke="#1e293b" stroke-width="1"/><rect x="164" y="192" width="134" height="24" rx="12" fill="#2563eb22" stroke="#2563eb" stroke-width="1"/><text x="231" y="208" font-family="system-ui, -apple-system, Segoe UI, sans-serif" font-size="12" font-weight="600" fill="#60a5fa" text-anchor="middle">Mataró</text><rect x="314" y="192" width="134" height="24" rx="12" fill="#111827" stroke="#1e293b" stroke-width="1"/><text x="381" y="208" font-family="system-ui, -apple-system, Segoe UI, sans-serif" font-size="12" font-weight="600" fill="#94a3b8" text-anchor="middle">2-3 hab</text><rect x="464" y="192" width="134" height="24" rx="12" fill="#111827" stroke="#1e293b" stroke-width="1"/><text x="531" y="208" font-family="system-ui, -apple-system, Segoe UI, sans-serif" font-size="12" font-weight="600" fill="#94a3b8" text-anchor="middle">&lt; 250.000€</text><rect x="148" y="240" width="289.3333333333333" height="152" rx="12" fill="#0b1220" stroke="#1e293b" stroke-width="1"/><rect x="160" y="252" width="265.3333333333333" height="80" rx="8" fill="#2563eb22"/><path d="M292.66666666666663 278 a14 14 0 1 0 0.01 0 M292.66666666666663 292 l0 12" fill="none" stroke="#2563eb" stroke-width="3"/><text x="162" y="356" font-family="system-ui, -apple-system, Segoe UI, sans-serif" font-size="17" font-weight="800" fill="#2563eb" text-anchor="start">185.000€</text><rect x="162" y="368" width="219.33333333333331" height="8" rx="4" fill="#1e293b"/><rect x="455.3333333333333" y="240" width="289.3333333333333" height="152" rx="12" fill="#0b1220" stroke="#1e293b" stroke-width="1"/><rect x="467.3333333333333" y="252" width="265.3333333333333" height="80" rx="8" fill="#60a5fa22"/><path d="M600 278 a14 14 0 1 0 0.01 0 M600 292 l0 12" fill="none" stroke="#60a5fa" stroke-width="3"/><text x="469.3333333333333" y="356" font-family="system-ui, -apple-system, Segoe UI, sans-serif" font-size="17" font-weight="800" fill="#60a5fa" text-anchor="start">232.000€</text><rect x="469.3333333333333" y="368" width="219.33333333333331" height="8" rx="4" fill="#1e293b"/><rect x="762.6666666666666" y="240" width="289.3333333333333" height="152" rx="12" fill="#0b1220" stroke="#1e293b" stroke-width="1"/><rect x="774.6666666666666" y="252" width="265.3333333333333" height="80" rx="8" fill="#2563eb22"/><path d="M907.3333333333333 278 a14 14 0 1 0 0.01 0 M907.3333333333333 292 l0 12" fill="none" stroke="#2563eb" stroke-width="3"/><text x="776.6666666666666" y="356" font-family="system-ui, -apple-system, Segoe UI, sans-serif" font-size="17" font-weight="800" fill="#2563eb" text-anchor="start">149.000€</text><rect x="776.6666666666666" y="368" width="219.33333333333331" height="8" rx="4" fill="#1e293b"/>
  <text x="120" y="545" font-family="system-ui, -apple-system, Segoe UI, sans-serif" font-size="50" font-weight="800" fill="#ffffff" text-anchor="start">Portal Inmobiliario</text>
  <text x="120" y="586" font-family="system-ui, -apple-system, Segoe UI, sans-serif" font-size="21" font-weight="400" fill="#94a3b8" text-anchor="start">Búsqueda avanzada y captación de leads</text>
  <text x="1080" y="586" font-family="system-ui, -apple-system, Segoe UI, sans-serif" font-size="18" font-weight="700" fill="#60a5fa" text-anchor="end">alamia.es</text>
</svg>
