<svg xmlns="http://www.w3.org/2000/svg" width="1200" height="630" viewBox="0 0 1200 630">
  <defs>
    <linearGradient id="bg" x1="0%" y1="0%" x2="100%" y2="100%">
      <stop offset="0%" style="stop-color:#052e16"/>
      <stop offset="40%" style="stop-color:#14532d"/>
      <stop offset="100%" style="stop-color:#0f172a"/>
    </linearGradient>
    <linearGradient id="green" x1="0%" y1="0%" x2="100%" y2="0%">
      <stop offset="0%" style="stop-color:#4ade80"/>
      <stop offset="100%" style="stop-color:#16a34a"/>
    </linearGradient>
  </defs>
  <rect width="1200" height="630" fill="url(#bg)"/>
  <circle cx="150" cy="120" r="100" fill="#22c55e" opacity="0.12"/>
  <circle cx="1050" cy="520" r="180" fill="#16a34a" opacity="0.1"/>
  <rect x="80" y="140" width="500" height="380" rx="16" fill="#0f172a" stroke="#166534" stroke-width="2"/>
  <rect x="110" y="170" width="200" height="100" rx="12" fill="#14532d" stroke="#22c55e" stroke-width="2"/>
  <text x="210" y="220" font-family="system-ui, sans-serif" font-size="36" text-anchor="middle">=Ą</text>
  <text x="210" y="255" font-family="system-ui, sans-serif" font-size="13" font-weight="600" fill="#86efac" text-anchor="middle">Mesa</text>
  <rect x="330" y="170" width="200" height="100" rx="12" fill="#0f172a" stroke="#334155" stroke-width="2"/>
  <text x="430" y="220" font-family="system-ui, sans-serif" font-size="36" text-anchor="middle">=e</text>
  <text x="430" y="255" font-family="system-ui, sans-serif" font-size="13" fill="#94a3b8" text-anchor="middle">Sala reuniones</text>
  <text x="110" y="310" font-family="system-ui, sans-serif" font-size="14" font-weight="600" fill="#94a3b8">Fecha</text>
  <g transform="translate(110, 320)">
    <rect x="0" y="0" width="70" height="70" rx="8" fill="#14532d" stroke="#22c55e" stroke-width="2"/>
    <rect x="80" y="0" width="70" height="70" rx="8" fill="#0f172a" stroke="#334155"/>
    <rect x="160" y="0" width="70" height="70" rx="8" fill="#0f172a" stroke="#334155"/>
    <rect x="240" y="0" width="70" height="70" rx="8" fill="#0f172a" stroke="#334155"/>
    <text x="35" y="42" font-family="system-ui, sans-serif" font-size="22" font-weight="700" fill="#fff" text-anchor="middle">15</text>
    <text x="115" y="42" font-family="system-ui, sans-serif" font-size="22" font-weight="700" fill="#64748b" text-anchor="middle">16</text>
    <text x="195" y="42" font-family="system-ui, sans-serif" font-size="22" font-weight="700" fill="#64748b" text-anchor="middle">17</text>
    <text x="275" y="42" font-family="system-ui, sans-serif" font-size="22" font-weight="700" fill="#64748b" text-anchor="middle">18</text>
  </g>
  <text x="110" y="430" font-family="system-ui, sans-serif" font-size="14" font-weight="600" fill="#94a3b8">Horario</text>
  <g transform="translate(110, 440)">
    <rect x="0" y="0" width="80" height="36" rx="6" fill="#14532d" stroke="#22c55e"/>
    <rect x="90" y="0" width="80" height="36" rx="6" fill="#0f172a" stroke="#334155"/>
    <rect x="180" y="0" width="80" height="36" rx="6" fill="#0f172a" stroke="#334155" opacity="0.4"/>
    <text x="40" y="23" font-family="system-ui, sans-serif" font-size="13" font-weight="600" fill="#86efac" text-anchor="middle">10:00</text>
    <text x="130" y="23" font-family="system-ui, sans-serif" font-size="13" fill="#94a3b8" text-anchor="middle">11:00</text>
    <text x="220" y="23" font-family="system-ui, sans-serif" font-size="13" fill="#64748b" text-anchor="middle" text-decoration="line-through">12:00</text>
  </g>
  <rect x="620" y="140" width="500" height="380" rx="16" fill="#0f172a" stroke="#166534" stroke-width="2"/>
  <text x="650" y="190" font-family="system-ui, sans-serif" font-size="20" font-weight="600" fill="#86efac">Resumen</text>
  <text x="650" y="260" font-family="system-ui, sans-serif" font-size="14" fill="#64748b">Espacio: Mesa individual</text>
  <text x="650" y="300" font-family="system-ui, sans-serif" font-size="14" fill="#64748b">Fecha: 15/06/2026</text>
  <text x="650" y="340" font-family="system-ui, sans-serif" font-size="14" fill="#64748b">Horario: 10:00</text>
  <line x1="650" y1="370" x2="1090" y2="370" stroke="#166534" stroke-width="1"/>
  <text x="650" y="420" font-family="system-ui, sans-serif" font-size="18" fill="#94a3b8">Total</text>
  <text x="1050" y="420" font-family="system-ui, sans-serif" font-size="36" font-weight="800" fill="url(#green)" text-anchor="end">15 ¬</text>
  <rect x="650" y="450" width="440" height="50" rx="10" fill="#16a34a"/>
  <text x="870" y="482" font-family="system-ui, sans-serif" font-size="16" font-weight="600" fill="#fff" text-anchor="middle">Confirmar reserva</text>
  <text x="80" y="90" font-family="system-ui, sans-serif" font-size="28" font-weight="600" fill="#86efac" letter-spacing="2">RESERVAS</text>
  <text x="80" y="580" font-family="system-ui, sans-serif" font-size="56" font-weight="800" fill="#ffffff">CoWork Hub</text>
  <text x="80" y="610" font-family="system-ui, sans-serif" font-size="22" fill="#4ade80">Reserva de espacios de coworking</text>
</svg>
